M48
;Layer_Color=9474304
;FILE_FORMAT=2:5
INCH,TZ
;TYPE=PLATED
T1F00S00C0.02800
T2F00S00C0.03150
T3F00S00C0.05000
;TYPE=NON_PLATED
T4F00S00C0.06693
T5F00S00C0.17717
%
T01
X251969Y76772
X390227Y241297
X351821Y280955
X436755Y311614
X461221Y287149
X306000Y359000
X303150Y389764
X264000Y373000
T02
X201285Y143000
Y154811
X362205Y228346
X374016
X124398Y255620
X112587
X394000Y352000
Y363811
T03
X133858Y141732
X153262Y122329
X157521Y145908
X224409Y146297
Y136297
Y126297
X193152Y110277
X188976Y86614
X212639Y90790
X208380Y67211
X287163Y80750
X310826Y76574
X291339Y57087
X284409Y126297
Y136297
Y146297
X324564Y118151
X328740Y94488
X348227Y113975
X366142Y131890
X361966Y155553
X385629Y151377
X403543Y169291
X399367Y192954
X423031Y188778
X440945Y206693
X436769Y230356
X460432Y226180
X324803Y226297
Y216297
Y206297
Y196297
Y186297
Y176297
X304803
Y186297
Y196297
Y206297
Y216297
Y226297
X284409
Y236297
Y246297
Y256297
Y266297
Y276297
Y286297
Y296297
Y306297
X274409
X264409
X254409
X244409
X234409
X224409
Y296297
Y286297
Y276297
Y266297
Y256297
Y246297
Y236297
Y226297
Y216297
Y206297
Y196297
Y186297
Y176297
Y166297
Y156297
X284409
Y166297
Y176297
Y186297
Y196297
Y206297
Y216297
X102403Y201026
X98144Y177447
X78740Y196850
X82916Y220514
X75301Y282967
X51638Y287143
X71125Y306630
X138034Y165395
X112702Y320369
X108526Y344032
X126441Y361946
X150104Y357770
X145928Y381433
X89039Y324545
X224409Y326297
Y316297
Y336297
Y346297
Y356297
X284409
Y346297
Y336297
Y326297
Y316297
X187505Y395172
X163842Y399348
X183329Y418835
X201285Y436790
X224948Y432614
X220772Y456277
T04
X350454Y92261
X330967Y111748
X387856Y129663
X368369Y149150
X68898Y289370
X49410Y308857
X106299Y326772
X86812Y346259
X143701Y364173
X124214Y383660
X181102Y401575
X161615Y421062
X199058Y458505
X218545Y439017
T05
X255906Y39370
X471471Y255620
X38971
X255221Y471870
M30
