G04*
G04 #@! TF.GenerationSoftware,Altium Limited,Altium Designer,19.0.14 (431)*
G04*
G04 Layer_Color=16711935*
%FSLAX25Y25*%
%MOIN*%
G70*
G01*
G75*
G04:AMPARAMS|DCode=20|XSize=238mil|YSize=103mil|CornerRadius=18.25mil|HoleSize=0mil|Usage=FLASHONLY|Rotation=225.000|XOffset=0mil|YOffset=0mil|HoleType=Round|Shape=RoundedRectangle|*
%AMROUNDEDRECTD20*
21,1,0.23800,0.06650,0,0,225.0*
21,1,0.20150,0.10300,0,0,225.0*
1,1,0.03650,-0.09475,-0.04773*
1,1,0.03650,0.04773,0.09475*
1,1,0.03650,0.09475,0.04773*
1,1,0.03650,-0.04773,-0.09475*
%
%ADD20ROUNDEDRECTD20*%
%ADD23C,0.06312*%
%ADD24C,0.07800*%
%ADD25C,0.04737*%
%ADD26C,0.32296*%
%ADD27C,0.05800*%
D20*
X448139Y322999D02*
D03*
X472605Y298533D02*
D03*
D23*
X394000Y352000D02*
D03*
Y363811D02*
D03*
X374016Y228346D02*
D03*
X362205D02*
D03*
X201285Y143000D02*
D03*
Y154811D02*
D03*
X112587Y255620D02*
D03*
X124398D02*
D03*
D24*
X324564Y118151D02*
D03*
X328740Y94488D02*
D03*
X348227Y113975D02*
D03*
X310826Y76574D02*
D03*
X291339Y57087D02*
D03*
X287163Y80750D02*
D03*
X361966Y155553D02*
D03*
X366142Y131890D02*
D03*
X385629Y151377D02*
D03*
X423031Y188778D02*
D03*
X403543Y169291D02*
D03*
X399367Y192954D02*
D03*
X460432Y226180D02*
D03*
X440945Y206693D02*
D03*
X436769Y230356D02*
D03*
X82916Y220514D02*
D03*
X78740Y196850D02*
D03*
X102403Y201026D02*
D03*
X98144Y177447D02*
D03*
X234409Y306297D02*
D03*
X244409D02*
D03*
X254409D02*
D03*
X264409D02*
D03*
X274409D02*
D03*
X224409Y126297D02*
D03*
Y136297D02*
D03*
Y146297D02*
D03*
Y156297D02*
D03*
Y166297D02*
D03*
Y176297D02*
D03*
Y186297D02*
D03*
Y196297D02*
D03*
Y206297D02*
D03*
Y216297D02*
D03*
Y226297D02*
D03*
Y236297D02*
D03*
Y246297D02*
D03*
Y256297D02*
D03*
Y266297D02*
D03*
Y276297D02*
D03*
Y286297D02*
D03*
Y296297D02*
D03*
Y306297D02*
D03*
Y316297D02*
D03*
Y326297D02*
D03*
Y336297D02*
D03*
Y346297D02*
D03*
Y356297D02*
D03*
X284409D02*
D03*
Y346297D02*
D03*
Y336297D02*
D03*
Y326297D02*
D03*
Y316297D02*
D03*
Y306297D02*
D03*
Y296297D02*
D03*
Y286297D02*
D03*
Y276297D02*
D03*
Y266297D02*
D03*
Y256297D02*
D03*
Y246297D02*
D03*
Y236297D02*
D03*
Y226297D02*
D03*
Y216297D02*
D03*
Y206297D02*
D03*
Y196297D02*
D03*
Y186297D02*
D03*
Y176297D02*
D03*
Y156297D02*
D03*
Y126297D02*
D03*
Y136297D02*
D03*
Y146297D02*
D03*
Y166297D02*
D03*
X304803Y226297D02*
D03*
X324803D02*
D03*
X304803Y216297D02*
D03*
X324803D02*
D03*
X304803Y206297D02*
D03*
X324803D02*
D03*
X304803Y196297D02*
D03*
X324803D02*
D03*
Y186297D02*
D03*
X304803Y176297D02*
D03*
X324803D02*
D03*
X304803Y186297D02*
D03*
X224948Y432614D02*
D03*
X220772Y456277D02*
D03*
X201285Y436790D02*
D03*
X163842Y399348D02*
D03*
X183329Y418835D02*
D03*
X187505Y395172D02*
D03*
X126441Y361946D02*
D03*
X145928Y381433D02*
D03*
X150104Y357770D02*
D03*
X89039Y324545D02*
D03*
X108526Y344032D02*
D03*
X112702Y320369D02*
D03*
X51638Y287143D02*
D03*
X71125Y306630D02*
D03*
X75301Y282967D02*
D03*
X138034Y165395D02*
D03*
X133858Y141732D02*
D03*
X157521Y145908D02*
D03*
X153262Y122329D02*
D03*
X193152Y110277D02*
D03*
X188976Y86614D02*
D03*
X212639Y90790D02*
D03*
X208380Y67211D02*
D03*
D25*
X350454Y92261D02*
D03*
X330967Y111748D02*
D03*
X387856Y129663D02*
D03*
X368369Y149150D02*
D03*
X199058Y458505D02*
D03*
X218545Y439017D02*
D03*
X181102Y401575D02*
D03*
X161615Y421062D02*
D03*
X143701Y364173D02*
D03*
X124214Y383660D02*
D03*
X106299Y326772D02*
D03*
X86812Y346259D02*
D03*
X68898Y289370D02*
D03*
X49410Y308857D02*
D03*
D26*
X255221Y471870D02*
D03*
X38971Y255620D02*
D03*
X471471D02*
D03*
X255906Y39370D02*
D03*
D27*
X264000Y373000D02*
D03*
X306000Y359000D02*
D03*
X251969Y76772D02*
D03*
X390227Y241297D02*
D03*
X351821Y280955D02*
D03*
X303150Y389764D02*
D03*
X436755Y311614D02*
D03*
X461221Y287149D02*
D03*
M02*
