G04*
G04 #@! TF.GenerationSoftware,Altium Limited,Altium Designer,19.0.14 (431)*
G04*
G04 Layer_Color=16711935*
%FSLAX25Y25*%
%MOIN*%
G70*
G01*
G75*
%ADD46C,0.00050*%
%ADD47C,0.01000*%
D46*
X264079Y471471D02*
X264023Y472463D01*
X263857Y473442D01*
X263582Y474397D01*
X263202Y475314D01*
X262721Y476184D01*
X262146Y476994D01*
X261485Y477735D01*
X260744Y478397D01*
X259934Y478971D01*
X259064Y479452D01*
X258147Y479832D01*
X257192Y480107D01*
X256213Y480273D01*
X255221Y480329D01*
X254229Y480273D01*
X253250Y480107D01*
X252295Y479832D01*
X251377Y479452D01*
X250508Y478971D01*
X249698Y478397D01*
X248957Y477735D01*
X248295Y476994D01*
X247720Y476184D01*
X247240Y475314D01*
X246860Y474397D01*
X246585Y473442D01*
X246418Y472463D01*
X246362Y471471D01*
X246418Y470479D01*
X246585Y469500D01*
X246860Y468545D01*
X247240Y467627D01*
X247720Y466758D01*
X248295Y465948D01*
X248957Y465207D01*
X249698Y464545D01*
X250508Y463970D01*
X251377Y463490D01*
X252295Y463110D01*
X253250Y462835D01*
X254229Y462668D01*
X255221Y462612D01*
X256213Y462668D01*
X257192Y462835D01*
X258147Y463110D01*
X259064Y463490D01*
X259934Y463970D01*
X260744Y464545D01*
X261485Y465207D01*
X262146Y465948D01*
X262721Y466758D01*
X263202Y467627D01*
X263582Y468545D01*
X263857Y469500D01*
X264023Y470479D01*
X264079Y471471D01*
X480329Y255221D02*
X480273Y256213D01*
X480107Y257192D01*
X479832Y258147D01*
X479452Y259064D01*
X478971Y259934D01*
X478397Y260744D01*
X477735Y261485D01*
X476994Y262146D01*
X476184Y262721D01*
X475314Y263202D01*
X474397Y263582D01*
X473442Y263857D01*
X472463Y264023D01*
X471471Y264079D01*
X470479Y264023D01*
X469500Y263857D01*
X468545Y263582D01*
X467627Y263202D01*
X466758Y262721D01*
X465948Y262146D01*
X465207Y261485D01*
X464545Y260744D01*
X463970Y259934D01*
X463490Y259064D01*
X463110Y258147D01*
X462835Y257192D01*
X462668Y256213D01*
X462612Y255221D01*
X462668Y254229D01*
X462835Y253250D01*
X463110Y252295D01*
X463490Y251377D01*
X463970Y250508D01*
X464545Y249698D01*
X465207Y248957D01*
X465948Y248295D01*
X466758Y247720D01*
X467627Y247240D01*
X468545Y246860D01*
X469500Y246585D01*
X470479Y246418D01*
X471471Y246362D01*
X472463Y246418D01*
X473442Y246585D01*
X474397Y246860D01*
X475314Y247240D01*
X476184Y247720D01*
X476994Y248295D01*
X477735Y248957D01*
X478397Y249698D01*
X478971Y250508D01*
X479452Y251377D01*
X479832Y252295D01*
X480107Y253250D01*
X480273Y254229D01*
X480329Y255221D01*
X264079Y38971D02*
X264023Y39963D01*
X263857Y40942D01*
X263582Y41897D01*
X263202Y42814D01*
X262721Y43684D01*
X262146Y44494D01*
X261485Y45235D01*
X260744Y45897D01*
X259934Y46471D01*
X259064Y46952D01*
X258147Y47332D01*
X257192Y47607D01*
X256213Y47773D01*
X255221Y47829D01*
X254229Y47773D01*
X253250Y47607D01*
X252295Y47332D01*
X251377Y46952D01*
X250508Y46471D01*
X249698Y45897D01*
X248957Y45235D01*
X248295Y44494D01*
X247720Y43684D01*
X247240Y42814D01*
X246860Y41897D01*
X246585Y40942D01*
X246418Y39963D01*
X246362Y38971D01*
X246418Y37979D01*
X246585Y37000D01*
X246860Y36045D01*
X247240Y35127D01*
X247720Y34258D01*
X248295Y33448D01*
X248957Y32707D01*
X249698Y32045D01*
X250508Y31470D01*
X251377Y30990D01*
X252295Y30610D01*
X253250Y30335D01*
X254229Y30168D01*
X255221Y30112D01*
X256213Y30168D01*
X257192Y30335D01*
X258147Y30610D01*
X259064Y30990D01*
X259934Y31470D01*
X260744Y32045D01*
X261485Y32707D01*
X262146Y33448D01*
X262721Y34258D01*
X263202Y35127D01*
X263582Y36045D01*
X263857Y37000D01*
X264023Y37979D01*
X264079Y38971D01*
X504651Y226262D02*
X505360Y227010D01*
X506030Y227794D01*
X506657Y228611D01*
X507241Y229461D01*
X507779Y230339D01*
X508271Y231245D01*
X508715Y232175D01*
X509109Y233127D01*
X509453Y234099D01*
X509746Y235087D01*
X509986Y236089D01*
X510174Y237103D01*
X510309Y238124D01*
X510390Y239152D01*
X510417Y240182D01*
Y270260D02*
X510390Y271290D01*
X510309Y272317D01*
X510174Y273339D01*
X509986Y274352D01*
X509746Y275355D01*
X509453Y276343D01*
X509109Y277314D01*
X508715Y278266D01*
X508271Y279197D01*
X507779Y280102D01*
X507241Y280981D01*
X506657Y281830D01*
X506030Y282648D01*
X505360Y283432D01*
X504651Y284179D01*
X284179Y504651D02*
X283432Y505360D01*
X282648Y506030D01*
X281830Y506657D01*
X280981Y507241D01*
X280102Y507779D01*
X279197Y508271D01*
X278266Y508715D01*
X277314Y509109D01*
X276343Y509453D01*
X275355Y509746D01*
X274352Y509986D01*
X273339Y510174D01*
X272317Y510309D01*
X271290Y510390D01*
X270260Y510417D01*
X240182D02*
X239152Y510390D01*
X238124Y510309D01*
X237103Y510174D01*
X236089Y509986D01*
X235087Y509746D01*
X234099Y509453D01*
X233127Y509109D01*
X232175Y508715D01*
X231245Y508271D01*
X230339Y507779D01*
X229461Y507241D01*
X228611Y506657D01*
X227794Y506030D01*
X227010Y505360D01*
X226262Y504651D01*
X5791Y284179D02*
X5081Y283432D01*
X4412Y282648D01*
X3785Y281830D01*
X3201Y280981D01*
X2662Y280102D01*
X2171Y279197D01*
X1727Y278266D01*
X1333Y277314D01*
X989Y276343D01*
X696Y275355D01*
X455Y274352D01*
X267Y273339D01*
X133Y272317D01*
X52Y271290D01*
X25Y270260D01*
Y240182D02*
X52Y239152D01*
X133Y238124D01*
X267Y237103D01*
X455Y236089D01*
X696Y235087D01*
X989Y234099D01*
X1333Y233127D01*
X1727Y232175D01*
X2171Y231245D01*
X2662Y230339D01*
X3201Y229461D01*
X3785Y228611D01*
X4412Y227794D01*
X5081Y227010D01*
X5791Y226262D01*
X226262Y5791D02*
X227010Y5081D01*
X227794Y4412D01*
X228611Y3785D01*
X229461Y3201D01*
X230339Y2662D01*
X231245Y2171D01*
X232175Y1727D01*
X233127Y1333D01*
X234099Y989D01*
X235087Y696D01*
X236089Y455D01*
X237103Y267D01*
X238124Y133D01*
X239152Y52D01*
X240182Y25D01*
X270260D02*
X271290Y52D01*
X272317Y133D01*
X273339Y267D01*
X274352Y455D01*
X275355Y696D01*
X276343Y989D01*
X277314Y1333D01*
X278266Y1727D01*
X279197Y2171D01*
X280102Y2662D01*
X280981Y3201D01*
X281830Y3785D01*
X282648Y4412D01*
X283432Y5081D01*
X284179Y5791D01*
X47829Y255221D02*
X47773Y256213D01*
X47607Y257192D01*
X47332Y258147D01*
X46952Y259064D01*
X46471Y259934D01*
X45897Y260744D01*
X45235Y261485D01*
X44494Y262146D01*
X43684Y262721D01*
X42814Y263202D01*
X41897Y263582D01*
X40942Y263857D01*
X39963Y264023D01*
X38971Y264079D01*
X37979Y264023D01*
X37000Y263857D01*
X36045Y263582D01*
X35127Y263202D01*
X34258Y262721D01*
X33448Y262146D01*
X32707Y261485D01*
X32045Y260744D01*
X31470Y259934D01*
X30990Y259064D01*
X30610Y258147D01*
X30335Y257192D01*
X30168Y256213D01*
X30112Y255221D01*
X30168Y254229D01*
X30335Y253250D01*
X30610Y252295D01*
X30990Y251377D01*
X31470Y250508D01*
X32045Y249698D01*
X32707Y248957D01*
X33448Y248295D01*
X34258Y247720D01*
X35127Y247240D01*
X36045Y246860D01*
X37000Y246585D01*
X37979Y246418D01*
X38971Y246362D01*
X39963Y246418D01*
X40942Y246585D01*
X41897Y246860D01*
X42814Y247240D01*
X43684Y247720D01*
X44494Y248295D01*
X45235Y248957D01*
X45897Y249698D01*
X46471Y250508D01*
X46952Y251377D01*
X47332Y252295D01*
X47607Y253250D01*
X47773Y254229D01*
X47829Y255221D01*
X510417Y240182D02*
Y270260D01*
X284179Y504651D02*
X504651Y284179D01*
X240182Y510417D02*
X270260D01*
X5791Y284179D02*
X226262Y504651D01*
X25Y240182D02*
Y270260D01*
X5791Y226262D02*
X226262Y5791D01*
X240182Y25D02*
X270260D01*
X284179Y5791D02*
X504651Y226262D01*
D47*
X236220Y452756D02*
D03*
M02*
